<?xml version="1.0" encoding="UTF-8" standalone="no"?>
<svg
   aria-hidden="true"
   role="img"
   class="iconify iconify--logos"
   width="18"
   height="32"
   preserveAspectRatio="xMidYMid"
   viewBox="0 0 128.24937 228"
   version="1.1"
   id="svg1"
   xmlns="http://www.w3.org/2000/svg"
   xmlns:svg="http://www.w3.org/2000/svg">
  <defs
     id="defs1" />
  <path
     fill="#00D8FF"
     d="m 210.483,73.824 a 171.49,171.49 0 0 0 -8.24,-2.597 c 0.465,-1.9 0.893,-3.777 1.273,-5.621 6.238,-30.281 2.16,-54.676 -11.769,-62.708 -13.355,-7.7 -35.196,0.329 -57.254,19.526 a 171.23,171.23 0 0 0 -6.375,5.848 155.866,155.866 0 0 0 -4.241,-3.917 C 100.759,3.829 77.587,-4.822 63.673,3.233 50.33,10.957 46.379,33.89 51.995,62.588 a 170.974,170.974 0 0 0 1.892,8.48 C 50.607,72 47.442,72.992 44.413,74.048 17.309,83.498 0,98.307 0,113.668 c 0,15.865 18.582,31.778 46.812,41.427 a 145.52,145.52 0 0 0 6.921,2.165 167.467,167.467 0 0 0 -2.01,9.138 c -5.354,28.2 -1.173,50.591 12.134,58.266 13.744,7.926 36.812,-0.22 59.273,-19.855 a 145.567,145.567 0 0 0 5.342,-4.923 168.064,168.064 0 0 0 6.92,6.314 c 21.758,18.722 43.246,26.282 56.54,18.586 13.731,-7.949 18.194,-32.003 12.4,-61.268 a 145.016,145.016 0 0 0 -1.535,-6.842 c 1.62,-0.48 3.21,-0.974 4.76,-1.488 C 236.905,145.465 256,129.745 256,113.668 256,98.251 238.132,83.342 210.483,73.824 Z m -6.365,70.984 c -1.4,0.463 -2.836,0.91 -4.3,1.345 -3.24,-10.257 -7.612,-21.163 -12.963,-32.432 5.106,-11 9.31,-21.767 12.459,-31.957 2.619,0.758 5.16,1.557 7.61,2.4 23.69,8.156 38.14,20.213 38.14,29.504 0,9.896 -15.606,22.743 -40.946,31.14 z m -10.514,20.834 c 2.562,12.94 2.927,24.64 1.23,33.787 -1.524,8.219 -4.59,13.698 -8.382,15.893 -8.067,4.67 -25.32,-1.4 -43.927,-17.412 a 156.726,156.726 0 0 1 -6.437,-5.87 c 7.214,-7.889 14.423,-17.06 21.459,-27.246 12.376,-1.098 24.068,-2.894 34.671,-5.345 a 134.17,134.17 0 0 1 1.386,6.193 z M 87.276,214.515 c -7.882,2.783 -14.16,2.863 -17.955,0.675 -8.075,-4.657 -11.432,-22.636 -6.853,-46.752 a 156.923,156.923 0 0 1 1.869,-8.499 c 10.486,2.32 22.093,3.988 34.498,4.994 7.084,9.967 14.501,19.128 21.976,27.15 a 134.668,134.668 0 0 1 -4.877,4.492 c -9.933,8.682 -19.886,14.842 -28.658,17.94 z M 50.35,144.747 c -12.483,-4.267 -22.792,-9.812 -29.858,-15.863 -6.35,-5.437 -9.555,-10.836 -9.555,-15.216 0,-9.322 13.897,-21.212 37.076,-29.293 2.813,-0.98 5.757,-1.905 8.812,-2.773 3.204,10.42 7.406,21.315 12.477,32.332 -5.137,11.18 -9.399,22.249 -12.634,32.792 A 134.718,134.718 0 0 1 50.35,144.747 Z M 62.728,60.487 C 57.917,35.9 61.112,17.353 69.153,12.698 77.717,7.74 96.655,14.809 116.616,32.533 a 144.318,144.318 0 0 1 3.841,3.545 c -7.438,7.987 -14.787,17.08 -21.808,26.988 -12.04,1.116 -23.565,2.908 -34.161,5.309 a 160.342,160.342 0 0 1 -1.76,-7.887 z M 173.155,87.755 A 347.8,347.8 0 0 0 165.37,74.952 c 8.168,1.033 15.994,2.404 23.343,4.08 -2.206,7.072 -4.956,14.465 -8.193,22.045 A 381.151,381.151 0 0 0 173.155,87.755 Z M 128.123,43.894 c 5.044,5.465 10.096,11.566 15.065,18.186 A 322.04,322.04 0 0 0 112.931,62.074 C 117.905,55.515 123,49.422 128.123,43.894 Z M 82.802,87.83 a 323.167,323.167 0 0 0 -7.227,13.238 c -3.184,-7.553 -5.909,-14.98 -8.134,-22.152 7.304,-1.634 15.093,-2.97 23.209,-3.984 a 321.524,321.524 0 0 0 -7.848,12.897 z m 8.081,65.352 c -8.385,-0.936 -16.291,-2.203 -23.593,-3.793 2.26,-7.3 5.045,-14.885 8.298,-22.6 a 321.187,321.187 0 0 0 7.257,13.246 c 2.594,4.48 5.28,8.868 8.038,13.147 z m 37.542,31.03 c -5.184,-5.592 -10.354,-11.779 -15.403,-18.433 4.902,0.192 9.899,0.29 14.978,0.29 5.218,0 10.376,-0.117 15.453,-0.343 -4.985,6.774 -10.018,12.97 -15.028,18.486 z m 52.198,-57.817 c 3.422,7.8 6.306,15.345 8.596,22.52 -7.422,1.694 -15.436,3.058 -23.88,4.071 a 382.417,382.417 0 0 0 7.859,-13.026 347.403,347.403 0 0 0 7.425,-13.565 z m -16.898,8.101 A 358.557,358.557 0 0 1 151.444,154.311 329.4,329.4 0 0 1 128,155.134 c -7.967,0 -15.716,-0.248 -23.178,-0.732 A 310.202,310.202 0 0 1 92.309,134.556 H 92.31 A 307.41,307.41 0 0 1 81.387,113.929 310.278,310.278 0 0 1 92.277,93.292 l -0.001,0.001 a 307.318,307.318 0 0 1 12.413,-19.761 c 7.613,-0.576 15.42,-0.876 23.31,-0.876 H 128 c 7.926,0 15.743,0.303 23.354,0.883 a 329.357,329.357 0 0 1 12.335,19.695 358.489,358.489 0 0 1 11.036,20.54 329.472,329.472 0 0 1 -11,20.722 z m 22.56,-122.124 c 8.572,4.944 11.906,24.881 6.52,51.026 -0.344,1.668 -0.73,3.367 -1.15,5.09 C 181.033,66.036 169.5,64.213 157.425,63.08 150.391,53.063 143.102,43.956 135.785,36.072 a 160.789,160.789 0 0 1 5.888,-5.4 c 18.9,-16.447 36.564,-22.941 44.612,-18.3 z M 128,90.808 c 12.625,0 22.86,10.235 22.86,22.86 0,12.625 -10.235,22.86 -22.86,22.86 -12.625,0 -22.86,-10.235 -22.86,-22.86 0,-12.625 10.235,-22.86 22.86,-22.86 z"
     id="path1"
     style="fill:#33373e;fill-opacity:1" />
</svg>
